<mxfile host="app.diagrams.net" agent="Mozilla/5.0 (Windows NT 10.0; Win64; x64; rv:109.0) Gecko/20100101 Firefox/115.0" version="24.9.3">
  <diagram name="Page-1" id="2YBvvXClWsGukQMizWep">
    <mxGraphModel dx="1147" dy="626" grid="1" gridSize="10" guides="1" tooltips="1" connect="1" arrows="1" fold="1" page="1" pageScale="1" pageWidth="850" pageHeight="1100" math="0" shadow="0">
      <root>
        <mxCell id="0" />
        <mxCell id="1" parent="0" />
        <mxCell id="qlrumOmwTfTmcknLoPNu-34" value="" style="rounded=0;whiteSpace=wrap;html=1;" vertex="1" parent="1">
          <mxGeometry x="110" y="290" width="420" height="260" as="geometry" />
        </mxCell>
        <mxCell id="qlrumOmwTfTmcknLoPNu-35" value="&lt;div&gt;Loop&lt;/div&gt;" style="rounded=0;whiteSpace=wrap;html=1;" vertex="1" parent="1">
          <mxGeometry x="110" y="290" width="60" height="30" as="geometry" />
        </mxCell>
        <mxCell id="aM9ryv3xv72pqoxQDRHE-1" value="&lt;div&gt;Caisse&lt;/div&gt;" style="shape=umlLifeline;perimeter=lifelinePerimeter;whiteSpace=wrap;html=1;container=0;dropTarget=0;collapsible=0;recursiveResize=0;outlineConnect=0;portConstraint=eastwest;newEdgeStyle={&quot;edgeStyle&quot;:&quot;elbowEdgeStyle&quot;,&quot;elbow&quot;:&quot;vertical&quot;,&quot;curved&quot;:0,&quot;rounded&quot;:0};" parent="1" vertex="1">
          <mxGeometry x="241" y="150" width="99" height="590" as="geometry" />
        </mxCell>
        <mxCell id="aM9ryv3xv72pqoxQDRHE-2" value="" style="html=1;points=[];perimeter=orthogonalPerimeter;outlineConnect=0;targetShapes=umlLifeline;portConstraint=eastwest;newEdgeStyle={&quot;edgeStyle&quot;:&quot;elbowEdgeStyle&quot;,&quot;elbow&quot;:&quot;vertical&quot;,&quot;curved&quot;:0,&quot;rounded&quot;:0};" parent="aM9ryv3xv72pqoxQDRHE-1" vertex="1">
          <mxGeometry x="45" y="70" width="9" height="120" as="geometry" />
        </mxCell>
        <mxCell id="qlrumOmwTfTmcknLoPNu-37" value="" style="html=1;points=[];perimeter=orthogonalPerimeter;outlineConnect=0;targetShapes=umlLifeline;portConstraint=eastwest;newEdgeStyle={&quot;edgeStyle&quot;:&quot;elbowEdgeStyle&quot;,&quot;elbow&quot;:&quot;vertical&quot;,&quot;curved&quot;:0,&quot;rounded&quot;:0};" vertex="1" parent="aM9ryv3xv72pqoxQDRHE-1">
          <mxGeometry x="45" y="260" width="9" height="60" as="geometry" />
        </mxCell>
        <mxCell id="qlrumOmwTfTmcknLoPNu-39" value="" style="curved=1;endArrow=classic;html=1;rounded=0;" edge="1" parent="aM9ryv3xv72pqoxQDRHE-1" source="qlrumOmwTfTmcknLoPNu-37" target="qlrumOmwTfTmcknLoPNu-37">
          <mxGeometry width="50" height="50" relative="1" as="geometry">
            <mxPoint x="119" y="270" as="sourcePoint" />
            <mxPoint x="169" y="220" as="targetPoint" />
            <Array as="points">
              <mxPoint x="69" y="280" />
              <mxPoint x="99" y="300" />
            </Array>
          </mxGeometry>
        </mxCell>
        <mxCell id="qlrumOmwTfTmcknLoPNu-40" value="&lt;div&gt;Calc Prix&lt;/div&gt;" style="edgeLabel;html=1;align=center;verticalAlign=middle;resizable=0;points=[];" vertex="1" connectable="0" parent="qlrumOmwTfTmcknLoPNu-39">
          <mxGeometry x="0.8887" relative="1" as="geometry">
            <mxPoint x="60" y="-10" as="offset" />
          </mxGeometry>
        </mxCell>
        <mxCell id="aM9ryv3xv72pqoxQDRHE-5" value=":Object" style="shape=umlLifeline;perimeter=lifelinePerimeter;whiteSpace=wrap;html=1;container=0;dropTarget=0;collapsible=0;recursiveResize=0;outlineConnect=0;portConstraint=eastwest;newEdgeStyle={&quot;edgeStyle&quot;:&quot;elbowEdgeStyle&quot;,&quot;elbow&quot;:&quot;vertical&quot;,&quot;curved&quot;:0,&quot;rounded&quot;:0};" parent="1" vertex="1">
          <mxGeometry x="421" y="159" width="99" height="481" as="geometry" />
        </mxCell>
        <mxCell id="qlrumOmwTfTmcknLoPNu-5" value="" style="endArrow=none;dashed=1;html=1;rounded=0;" edge="1" parent="1" source="qlrumOmwTfTmcknLoPNu-1">
          <mxGeometry width="50" height="50" relative="1" as="geometry">
            <mxPoint x="180" y="460" as="sourcePoint" />
            <mxPoint x="179.71" y="200" as="targetPoint" />
          </mxGeometry>
        </mxCell>
        <mxCell id="qlrumOmwTfTmcknLoPNu-6" value="" style="html=1;verticalAlign=bottom;endArrow=block;edgeStyle=elbowEdgeStyle;elbow=vertical;curved=0;rounded=0;" edge="1" parent="1">
          <mxGeometry relative="1" as="geometry">
            <mxPoint x="180" y="240" as="sourcePoint" />
            <Array as="points">
              <mxPoint x="201.5" y="240" />
            </Array>
            <mxPoint x="286.5" y="240" as="targetPoint" />
          </mxGeometry>
        </mxCell>
        <mxCell id="qlrumOmwTfTmcknLoPNu-22" value="initier Vente" style="edgeLabel;html=1;align=center;verticalAlign=middle;resizable=0;points=[];" vertex="1" connectable="0" parent="qlrumOmwTfTmcknLoPNu-6">
          <mxGeometry x="0.0753" y="-2" relative="1" as="geometry">
            <mxPoint x="-4" y="8" as="offset" />
          </mxGeometry>
        </mxCell>
        <mxCell id="qlrumOmwTfTmcknLoPNu-7" value="" style="endArrow=none;dashed=1;html=1;rounded=0;" edge="1" parent="1" source="qlrumOmwTfTmcknLoPNu-24" target="qlrumOmwTfTmcknLoPNu-1">
          <mxGeometry width="50" height="50" relative="1" as="geometry">
            <mxPoint x="180" y="520" as="sourcePoint" />
            <mxPoint x="179.71" y="200" as="targetPoint" />
          </mxGeometry>
        </mxCell>
        <mxCell id="qlrumOmwTfTmcknLoPNu-1" value="Caissier" style="shape=umlActor;verticalLabelPosition=bottom;verticalAlign=top;html=1;outlineConnect=0;" vertex="1" parent="1">
          <mxGeometry x="165" y="150" width="30" height="60" as="geometry" />
        </mxCell>
        <mxCell id="qlrumOmwTfTmcknLoPNu-15" value="Caissier" style="shape=umlActor;verticalLabelPosition=bottom;verticalAlign=top;html=1;outlineConnect=0;" vertex="1" parent="1">
          <mxGeometry x="9.5" y="150" width="30" height="60" as="geometry" />
        </mxCell>
        <mxCell id="qlrumOmwTfTmcknLoPNu-16" value="" style="endArrow=none;dashed=1;html=1;rounded=0;" edge="1" parent="1" source="qlrumOmwTfTmcknLoPNu-17" target="qlrumOmwTfTmcknLoPNu-15">
          <mxGeometry width="50" height="50" relative="1" as="geometry">
            <mxPoint x="115" y="510" as="sourcePoint" />
            <mxPoint x="114.71" y="229" as="targetPoint" />
          </mxGeometry>
        </mxCell>
        <mxCell id="qlrumOmwTfTmcknLoPNu-18" value="" style="endArrow=none;dashed=1;html=1;rounded=0;" edge="1" parent="1" target="qlrumOmwTfTmcknLoPNu-17">
          <mxGeometry width="50" height="50" relative="1" as="geometry">
            <mxPoint x="24.5" y="680" as="sourcePoint" />
            <mxPoint x="24.5" y="380" as="targetPoint" />
          </mxGeometry>
        </mxCell>
        <mxCell id="qlrumOmwTfTmcknLoPNu-17" value="" style="html=1;points=[];perimeter=orthogonalPerimeter;outlineConnect=0;targetShapes=umlLifeline;portConstraint=eastwest;newEdgeStyle={&quot;edgeStyle&quot;:&quot;elbowEdgeStyle&quot;,&quot;elbow&quot;:&quot;vertical&quot;,&quot;curved&quot;:0,&quot;rounded&quot;:0};" vertex="1" parent="1">
          <mxGeometry x="20" y="570" width="9" height="80" as="geometry" />
        </mxCell>
        <mxCell id="qlrumOmwTfTmcknLoPNu-19" value="Demande moy Paiment" style="html=1;verticalAlign=bottom;endArrow=block;edgeStyle=elbowEdgeStyle;elbow=vertical;curved=0;rounded=0;" edge="1" parent="1" source="aM9ryv3xv72pqoxQDRHE-1">
          <mxGeometry relative="1" as="geometry">
            <mxPoint x="199.5" y="590" as="sourcePoint" />
            <Array as="points">
              <mxPoint x="99.5" y="590" />
              <mxPoint x="140.5" y="589" />
            </Array>
            <mxPoint x="29" y="590" as="targetPoint" />
          </mxGeometry>
        </mxCell>
        <mxCell id="qlrumOmwTfTmcknLoPNu-20" value="Return Type" style="html=1;verticalAlign=bottom;endArrow=block;edgeStyle=elbowEdgeStyle;elbow=vertical;curved=0;rounded=0;" edge="1" parent="1" source="qlrumOmwTfTmcknLoPNu-17" target="aM9ryv3xv72pqoxQDRHE-1">
          <mxGeometry relative="1" as="geometry">
            <mxPoint x="215.5" y="700" as="sourcePoint" />
            <Array as="points">
              <mxPoint x="119.5" y="650" />
              <mxPoint x="140.5" y="699" />
            </Array>
            <mxPoint x="199.5" y="650" as="targetPoint" />
          </mxGeometry>
        </mxCell>
        <mxCell id="qlrumOmwTfTmcknLoPNu-23" value="Demande Article" style="html=1;verticalAlign=bottom;endArrow=block;edgeStyle=elbowEdgeStyle;elbow=vertical;curved=0;rounded=0;" edge="1" parent="1" source="aM9ryv3xv72pqoxQDRHE-2" target="qlrumOmwTfTmcknLoPNu-24">
          <mxGeometry relative="1" as="geometry">
            <mxPoint x="281" y="320.00142857142856" as="sourcePoint" />
            <Array as="points" />
            <mxPoint x="175.5" y="320.00142857142856" as="targetPoint" />
          </mxGeometry>
        </mxCell>
        <mxCell id="qlrumOmwTfTmcknLoPNu-25" value="" style="endArrow=none;dashed=1;html=1;rounded=0;" edge="1" parent="1" target="qlrumOmwTfTmcknLoPNu-24">
          <mxGeometry width="50" height="50" relative="1" as="geometry">
            <mxPoint x="180" y="680" as="sourcePoint" />
            <mxPoint x="180" y="210" as="targetPoint" />
          </mxGeometry>
        </mxCell>
        <mxCell id="qlrumOmwTfTmcknLoPNu-24" value="" style="html=1;points=[];perimeter=orthogonalPerimeter;outlineConnect=0;targetShapes=umlLifeline;portConstraint=eastwest;newEdgeStyle={&quot;edgeStyle&quot;:&quot;elbowEdgeStyle&quot;,&quot;elbow&quot;:&quot;vertical&quot;,&quot;curved&quot;:0,&quot;rounded&quot;:0};" vertex="1" parent="1">
          <mxGeometry x="175.5" y="310" width="9" height="119" as="geometry" />
        </mxCell>
        <mxCell id="qlrumOmwTfTmcknLoPNu-36" value="&lt;div&gt;Rendre CPU&lt;/div&gt;" style="html=1;verticalAlign=bottom;endArrow=block;edgeStyle=elbowEdgeStyle;elbow=vertical;curved=0;rounded=0;" edge="1" parent="1" source="qlrumOmwTfTmcknLoPNu-37">
          <mxGeometry x="-0.5741" y="-10" relative="1" as="geometry">
            <mxPoint x="184.5" y="420.0000000000001" as="sourcePoint" />
            <Array as="points">
              <mxPoint x="180" y="420" />
            </Array>
            <mxPoint x="290.0000000000002" y="420.0000000000001" as="targetPoint" />
            <mxPoint as="offset" />
          </mxGeometry>
        </mxCell>
        <mxCell id="qlrumOmwTfTmcknLoPNu-41" value="Affiche Total" style="html=1;verticalAlign=bottom;endArrow=block;edgeStyle=elbowEdgeStyle;elbow=vertical;curved=0;rounded=0;" edge="1" parent="1" source="aM9ryv3xv72pqoxQDRHE-6" target="aM9ryv3xv72pqoxQDRHE-5">
          <mxGeometry x="1" y="-71" relative="1" as="geometry">
            <mxPoint x="541" y="590.2" as="sourcePoint" />
            <Array as="points" />
            <mxPoint x="440" y="590.2" as="targetPoint" />
            <mxPoint x="-70" y="61" as="offset" />
          </mxGeometry>
        </mxCell>
        <mxCell id="qlrumOmwTfTmcknLoPNu-42" value="" style="html=1;verticalAlign=bottom;endArrow=block;edgeStyle=elbowEdgeStyle;elbow=vertical;curved=0;rounded=0;" edge="1" parent="1" source="qlrumOmwTfTmcknLoPNu-37" target="aM9ryv3xv72pqoxQDRHE-6">
          <mxGeometry relative="1" as="geometry">
            <mxPoint x="295" y="435" as="sourcePoint" />
            <Array as="points">
              <mxPoint x="340" y="460" />
            </Array>
            <mxPoint x="470" y="435" as="targetPoint" />
          </mxGeometry>
        </mxCell>
        <mxCell id="aM9ryv3xv72pqoxQDRHE-6" value="" style="html=1;points=[];perimeter=orthogonalPerimeter;outlineConnect=0;targetShapes=umlLifeline;portConstraint=eastwest;newEdgeStyle={&quot;edgeStyle&quot;:&quot;elbowEdgeStyle&quot;,&quot;elbow&quot;:&quot;vertical&quot;,&quot;curved&quot;:0,&quot;rounded&quot;:0};" parent="1" vertex="1">
          <mxGeometry x="466" y="450" width="9" height="20" as="geometry" />
        </mxCell>
        <mxCell id="qlrumOmwTfTmcknLoPNu-43" value="" style="endArrow=classic;html=1;rounded=0;" edge="1" parent="1" target="aM9ryv3xv72pqoxQDRHE-1">
          <mxGeometry width="50" height="50" relative="1" as="geometry">
            <mxPoint x="180" y="510" as="sourcePoint" />
            <mxPoint x="300" y="450" as="targetPoint" />
          </mxGeometry>
        </mxCell>
        <mxCell id="qlrumOmwTfTmcknLoPNu-44" value="Finaliser Vente" style="edgeLabel;html=1;align=center;verticalAlign=middle;resizable=0;points=[];" vertex="1" connectable="0" parent="qlrumOmwTfTmcknLoPNu-43">
          <mxGeometry x="0.1091" y="1" relative="1" as="geometry">
            <mxPoint x="-1" y="-9" as="offset" />
          </mxGeometry>
        </mxCell>
      </root>
    </mxGraphModel>
  </diagram>
</mxfile>
